<?xml version="1.0" encoding="UTF-8"?>
<svg version="1.1" viewBox="0 0 16 16" xmlns="http://www.w3.org/2000/svg" xmlns:cc="http://creativecommons.org/ns#" xmlns:dc="http://purl.org/dc/elements/1.1/" xmlns:rdf="http://www.w3.org/1999/02/22-rdf-syntax-ns#">
<metadata>
<rdf:RDF>
<cc:Work rdf:about="">
<dc:format>image/svg+xml</dc:format>
<dc:type rdf:resource="http://purl.org/dc/dcmitype/StillImage"/>
<dc:title/>
</cc:Work>
</rdf:RDF>
</metadata>
<path d="m13.391 1.7253-1.4387 1.4387c-1.0573-0.884-2.4093-1.404-3.848-1.404-3.536 0-6.3613 2.756-6.3613 6.2053 0 1.5253 0.53733 2.912 1.4213 4.004l-1.4213 1.4213 0.936 0.86666 1.3693-1.3867c1.0747 0.884 2.4613 1.404 3.952 1.404 3.4493 0 6.2573-2.808 6.2573-6.2573 0-1.508-0.55466-2.8947-1.4387-3.9867l1.4387-1.4387zm-5.304 1.248c1.092 0 2.132 0.43333 2.964 1.1093l-6.916 6.916c-0.676-0.86666-1.092-1.9413-1.092-3.0333 0-2.6 2.4267-4.992 5.044-4.992zm3.8133 1.9933c0.65866 0.86666 1.0573 1.9413 1.0573 3.0507 0 2.6173-2.184 4.9747-4.9573 4.9747-1.1093 0-2.1493-0.416-2.9813-1.092z" fill="#fff" aria-label="∅"/>
</svg>
